# xmcd
#
# Track frame offsets:
#	150
#	14273
#	25585
#	39810
#	52338
#	68715
#	85305
#	97588
#	112915
#	125928
#
# Disc length: 1882 seconds
# Revision: 3
# Processed by: cddbd v1.5.2PL0 Copyright (c) Steve Scherf et al.
# Submitted via: dBpowerAMP V12.0
#
DISCID=7507580a
DTITLE=Reba McEntire - Have I Got A Deal For You
DYEAR=1985
DGENRE=Country
TTITLE0=I'm In Love All Over
TTITLE1=She's Single Again
TTITLE2=The Great Divide
TTITLE3=Have I Got A Deal For You
TTITLE4=Red Roses (Won't Work Now)
TTITLE5=Only In My Mind
TTITLE6=She's The One Loving You Now
TTITLE7=Whose Heartache Is This Anyway
TTITLE8=I Don't Need Nothin' You Ain't Got
TTITLE9=Don't Forget Your Way Home
EXTD=
EXTT0=
EXTT1=
EXTT2=
EXTT3=
EXTT4=
EXTT5=
EXTT6=
EXTT7=
EXTT8=
EXTT9=
PLAYORDER=
